<svg xmlns="http://www.w3.org/2000/svg" viewBox="0 0 960 600" role="img" aria-label="自动化工具控制台预览">
  <defs>
    <linearGradient id="bg" x1="0" x2="1" y1="0" y2="1"><stop stop-color="#111827"/><stop offset=".55" stop-color="#334155"/><stop offset="1" stop-color="#93a4b8"/></linearGradient>
    <filter id="s" x="-20%" y="-20%" width="140%" height="140%"><feDropShadow dx="0" dy="22" stdDeviation="24" flood-color="#020617" flood-opacity=".28"/></filter>
  </defs>
  <rect width="960" height="600" fill="url(#bg)"/>
  <rect x="72" y="62" width="816" height="476" rx="34" fill="#f8fafc" filter="url(#s)"/>
  <rect x="102" y="92" width="164" height="416" rx="24" fill="#0f172a"/>
  <rect x="130" y="124" width="88" height="14" rx="7" fill="#ffffff"/><rect x="130" y="178" width="92" height="12" rx="6" fill="#64748b"/><rect x="130" y="218" width="108" height="12" rx="6" fill="#64748b"/><rect x="130" y="258" width="72" height="12" rx="6" fill="#2563eb"/>
  <rect x="300" y="104" width="520" height="50" rx="18" fill="#eef4ff"/>
  <rect x="328" y="121" width="160" height="16" rx="8" fill="#0f172a"/><rect x="700" y="116" width="84" height="26" rx="13" fill="#2563eb"/>
  <g transform="translate(300 190)">
    <rect width="154" height="112" rx="22" fill="#ffffff" stroke="#e2e8f0"/><circle cx="42" cy="42" r="18" fill="#dcfce7"/><rect x="78" y="30" width="52" height="12" rx="6" fill="#0f172a"/><rect x="78" y="56" width="42" height="10" rx="5" fill="#94a3b8"/><rect x="24" y="82" width="106" height="10" rx="5" fill="#22c55e"/>
    <rect x="182" width="154" height="112" rx="22" fill="#ffffff" stroke="#e2e8f0"/><circle cx="224" cy="42" r="18" fill="#dbeafe"/><rect x="260" y="30" width="52" height="12" rx="6" fill="#0f172a"/><rect x="260" y="56" width="42" height="10" rx="5" fill="#94a3b8"/><rect x="206" y="82" width="106" height="10" rx="5" fill="#2563eb"/>
    <rect x="364" width="154" height="112" rx="22" fill="#ffffff" stroke="#e2e8f0"/><circle cx="406" cy="42" r="18" fill="#fee2e2"/><rect x="442" y="30" width="52" height="12" rx="6" fill="#0f172a"/><rect x="442" y="56" width="42" height="10" rx="5" fill="#94a3b8"/><rect x="388" y="82" width="106" height="10" rx="5" fill="#ef4444"/>
  </g>
  <rect x="300" y="340" width="520" height="144" rx="24" fill="#0f172a"/>
  <rect x="328" y="368" width="102" height="12" rx="6" fill="#60a5fa"/><rect x="328" y="402" width="420" height="10" rx="5" fill="#64748b"/><rect x="328" y="430" width="360" height="10" rx="5" fill="#64748b"/><rect x="328" y="458" width="452" height="10" rx="5" fill="#22c55e"/>
</svg>
