<svg xmlns="http://www.w3.org/2000/svg" viewBox="0 0 960 600" role="img" aria-label="Python报表工具页预览">
  <defs>
    <linearGradient id="bg" x1="0" x2="1" y1="0" y2="1"><stop stop-color="#f8fafc"/><stop offset=".55" stop-color="#e0f2fe"/><stop offset="1" stop-color="#dbeafe"/></linearGradient>
    <linearGradient id="py" x1="0" x2="1"><stop stop-color="#2563eb"/><stop offset="1" stop-color="#f59e0b"/></linearGradient>
    <filter id="s" x="-20%" y="-20%" width="140%" height="140%"><feDropShadow dx="0" dy="22" stdDeviation="24" flood-color="#0f172a" flood-opacity=".15"/></filter>
  </defs>
  <rect width="960" height="600" fill="url(#bg)"/>
  <rect x="76" y="66" width="808" height="468" rx="34" fill="#ffffff" filter="url(#s)"/>
  <rect x="112" y="102" width="736" height="44" rx="16" fill="#f1f5f9"/>
  <rect x="136" y="116" width="126" height="14" rx="7" fill="#0f172a"/><rect x="742" y="112" width="78" height="22" rx="11" fill="#2563eb"/>
  <rect x="120" y="184" width="250" height="298" rx="26" fill="#f8fafc" stroke="#e2e8f0"/>
  <rect x="150" y="216" width="74" height="28" rx="14" fill="url(#py)"/>
  <rect x="150" y="274" width="170" height="14" rx="7" fill="#64748b"/><rect x="150" y="306" width="136" height="14" rx="7" fill="#94a3b8"/>
  <rect x="150" y="374" width="160" height="44" rx="14" fill="#dbeafe"/>
  <path d="M394 326h94" stroke="#2563eb" stroke-width="12" stroke-linecap="round"/><path d="m470 292 40 34-40 34" fill="none" stroke="#2563eb" stroke-width="12" stroke-linecap="round" stroke-linejoin="round"/>
  <rect x="526" y="184" width="300" height="298" rx="26" fill="#0f172a"/>
  <rect x="558" y="218" width="166" height="18" rx="9" fill="#fff"/>
  <rect x="558" y="268" width="236" height="160" rx="18" fill="#1e293b"/>
  <g stroke="#334155" stroke-width="2"><path d="M558 308h236M558 348h236M558 388h236M606 268v160M666 268v160M726 268v160"/></g>
  <rect x="580" y="286" width="44" height="14" rx="7" fill="#60a5fa"/><rect x="640" y="326" width="64" height="14" rx="7" fill="#22c55e"/><rect x="744" y="366" width="34" height="14" rx="7" fill="#f59e0b"/>
  <rect x="558" y="448" width="92" height="22" rx="11" fill="#2563eb"/><rect x="668" y="448" width="118" height="22" rx="11" fill="#334155"/>
</svg>
