<svg xmlns="http://www.w3.org/2000/svg" viewBox="0 0 960 600" role="img" aria-label="摄影工作室网站预览">
  <defs>
    <linearGradient id="bg" x1="0" x2="1" y1="0" y2="1"><stop stop-color="#2a211d"/><stop offset=".55" stop-color="#a67855"/><stop offset="1" stop-color="#f1ddc6"/></linearGradient>
    <linearGradient id="card" x1="0" x2="1"><stop stop-color="#fffaf4" stop-opacity=".95"/><stop offset="1" stop-color="#fff4e8" stop-opacity=".82"/></linearGradient>
    <filter id="s" x="-20%" y="-20%" width="140%" height="140%"><feDropShadow dx="0" dy="22" stdDeviation="24" flood-color="#2a211d" flood-opacity=".26"/></filter>
  </defs>
  <rect width="960" height="600" fill="#fff8ef"/>
  <path d="M0 0h960v600H0z" fill="url(#bg)"/>
  <circle cx="722" cy="122" r="76" fill="#fff3df" opacity=".65"/>
  <rect x="68" y="64" width="824" height="472" rx="34" fill="url(#card)" filter="url(#s)"/>
  <rect x="96" y="94" width="768" height="48" rx="16" fill="#fffaf4"/>
  <circle cx="126" cy="118" r="7" fill="#ef4444"/><circle cx="148" cy="118" r="7" fill="#f59e0b"/><circle cx="170" cy="118" r="7" fill="#22c55e"/>
  <rect x="114" y="176" width="300" height="316" rx="28" fill="#322824"/>
  <circle cx="264" cy="280" r="54" fill="#f5dfc3"/>
  <path d="M145 492c42-92 99-138 171-138s116 46 141 138z" fill="#b3835f"/>
  <rect x="448" y="182" width="344" height="38" rx="19" fill="#2a211d"/>
  <rect x="448" y="246" width="256" height="18" rx="9" fill="#c49a78"/>
  <rect x="448" y="284" width="310" height="14" rx="7" fill="#dfc6ad"/>
  <rect x="448" y="314" width="274" height="14" rx="7" fill="#dfc6ad"/>
  <rect x="448" y="366" width="96" height="42" rx="21" fill="#2a211d"/>
  <rect x="558" y="366" width="122" height="42" rx="21" fill="#fffaf4" stroke="#e6cdb4"/>
  <g transform="translate(448 440)">
    <rect width="92" height="72" rx="18" fill="#f0dcc7"/><rect x="112" width="92" height="72" rx="18" fill="#c99a76"/><rect x="224" width="92" height="72" rx="18" fill="#6f4a37"/>
  </g>
</svg>
