<svg xmlns="http://www.w3.org/2000/svg" viewBox="0 0 960 600" role="img" aria-label="AI应用产品页预览">
  <defs>
    <linearGradient id="bg" x1="0" x2="1" y1="0" y2="1"><stop stop-color="#0f172a"/><stop offset=".55" stop-color="#1d4ed8"/><stop offset="1" stop-color="#93c5fd"/></linearGradient>
    <linearGradient id="bubble" x1="0" x2="1"><stop stop-color="#ffffff"/><stop offset="1" stop-color="#dbeafe"/></linearGradient>
    <filter id="s" x="-20%" y="-20%" width="140%" height="140%"><feDropShadow dx="0" dy="22" stdDeviation="24" flood-color="#020617" flood-opacity=".28"/></filter>
  </defs>
  <rect width="960" height="600" fill="url(#bg)"/>
  <circle cx="790" cy="96" r="92" fill="#dbeafe" opacity=".25"/>
  <circle cx="148" cy="472" r="120" fill="#60a5fa" opacity=".18"/>
  <rect x="86" y="66" width="788" height="468" rx="34" fill="#f8fbff" filter="url(#s)"/>
  <rect x="120" y="102" width="720" height="42" rx="15" fill="#eef4ff"/>
  <rect x="144" y="116" width="118" height="14" rx="7" fill="#0f172a"/><rect x="690" y="112" width="118" height="22" rx="11" fill="#2563eb"/>
  <rect x="126" y="184" width="316" height="288" rx="28" fill="#111827"/>
  <rect x="156" y="220" width="118" height="14" rx="7" fill="#60a5fa"/>
  <rect x="156" y="260" width="210" height="54" rx="18" fill="#1e293b"/>
  <rect x="188" y="280" width="130" height="12" rx="6" fill="#cbd5e1"/>
  <rect x="206" y="340" width="206" height="58" rx="20" fill="#2563eb"/>
  <rect x="236" y="363" width="122" height="12" rx="6" fill="#dbeafe"/>
  <rect x="156" y="424" width="170" height="14" rx="7" fill="#64748b"/>
  <rect x="490" y="188" width="300" height="54" rx="18" fill="url(#bubble)"/><rect x="520" y="209" width="178" height="12" rx="6" fill="#475569"/>
  <rect x="548" y="270" width="238" height="54" rx="18" fill="#eff6ff"/><rect x="578" y="291" width="150" height="12" rx="6" fill="#2563eb"/>
  <rect x="490" y="352" width="300" height="90" rx="22" fill="#fff" stroke="#dbeafe"/>
  <rect x="522" y="378" width="220" height="12" rx="6" fill="#475569"/><rect x="522" y="408" width="178" height="12" rx="6" fill="#94a3b8"/>
  <rect x="506" y="470" width="92" height="32" rx="16" fill="#2563eb"/><rect x="612" y="470" width="112" height="32" rx="16" fill="#e0e7ff"/>
</svg>
