<svg xmlns="http://www.w3.org/2000/svg" viewBox="0 0 960 600" role="img" aria-label="个人博客主页预览">
  <defs>
    <linearGradient id="bg" x1="0" x2="1" y1="0" y2="1"><stop stop-color="#fbfaf7"/><stop offset=".6" stop-color="#efe7dc"/><stop offset="1" stop-color="#d8e8df"/></linearGradient>
    <filter id="s" x="-20%" y="-20%" width="140%" height="140%"><feDropShadow dx="0" dy="22" stdDeviation="24" flood-color="#2a231b" flood-opacity=".14"/></filter>
  </defs>
  <rect width="960" height="600" fill="url(#bg)"/>
  <rect x="80" y="58" width="800" height="484" rx="34" fill="#fffdf8" filter="url(#s)"/>
  <rect x="120" y="96" width="124" height="18" rx="9" fill="#1f2933"/>
  <rect x="620" y="94" width="62" height="22" rx="11" fill="#e8f2ee"/><rect x="696" y="94" width="62" height="22" rx="11" fill="#e8f2ee"/><rect x="772" y="94" width="62" height="22" rx="11" fill="#2f6f5f"/>
  <rect x="120" y="162" width="420" height="38" rx="19" fill="#1f2933"/>
  <rect x="120" y="222" width="500" height="16" rx="8" fill="#8a948d"/><rect x="120" y="254" width="420" height="16" rx="8" fill="#a9b2ad"/>
  <rect x="658" y="152" width="142" height="142" rx="28" fill="#e8f2ee"/><text x="729" y="236" text-anchor="middle" font-family="Arial" font-size="36" font-weight="700" fill="#2f6f5f">LC</text>
  <rect x="120" y="332" width="700" height="148" rx="26" fill="#fbfaf7" stroke="#e7e1d8"/>
  <rect x="148" y="360" width="112" height="92" rx="18" fill="#d8e8df"/>
  <rect x="286" y="365" width="118" height="14" rx="7" fill="#2f6f5f"/><rect x="286" y="402" width="330" height="20" rx="10" fill="#1f2933"/><rect x="286" y="438" width="430" height="12" rx="6" fill="#98a2b3"/>
  <rect x="120" y="506" width="190" height="20" rx="10" fill="#e8f2ee"/><rect x="330" y="506" width="160" height="20" rx="10" fill="#f4efe7"/><rect x="510" y="506" width="150" height="20" rx="10" fill="#eef2ff"/>
</svg>
